<mxfile host="app.diagrams.net" agent="Mozilla/5.0 (Windows NT 10.0; Win64; x64) AppleWebKit/537.36 (KHTML, like Gecko) Chrome/140.0.0.0 Safari/537.36" version="28.2.1">
  <diagram id="gky5sSX2k2fwT22PgA19" name="ページ1">
    <mxGraphModel dx="786" dy="451" grid="1" gridSize="10" guides="1" tooltips="1" connect="1" arrows="1" fold="1" page="1" pageScale="1" pageWidth="827" pageHeight="1169" math="0" shadow="0">
      <root>
        <mxCell id="0" />
        <mxCell id="1" parent="0" />
        <mxCell id="IICgKp8x-0L88MFVPhWZ-2" value="ユーザー" style="shape=umlActor;verticalLabelPosition=bottom;verticalAlign=top;html=1;" vertex="1" parent="1">
          <mxGeometry x="80" y="110" width="30" height="60" as="geometry" />
        </mxCell>
        <mxCell id="IICgKp8x-0L88MFVPhWZ-3" value="メニュー画面" style="shape=umlBoundary;whiteSpace=wrap;html=1;" vertex="1" parent="1">
          <mxGeometry x="210" y="40" width="100" height="80" as="geometry" />
        </mxCell>
        <mxCell id="IICgKp8x-0L88MFVPhWZ-4" value="整数入力&lt;div&gt;画面表示&lt;/div&gt;" style="ellipse;shape=umlControl;whiteSpace=wrap;html=1;" vertex="1" parent="1">
          <mxGeometry x="370" y="100" width="70" height="80" as="geometry" />
        </mxCell>
        <mxCell id="IICgKp8x-0L88MFVPhWZ-5" value="整数入力画面" style="shape=umlBoundary;whiteSpace=wrap;html=1;" vertex="1" parent="1">
          <mxGeometry x="210" y="180" width="100" height="80" as="geometry" />
        </mxCell>
        <mxCell id="IICgKp8x-0L88MFVPhWZ-6" value="" style="endArrow=classic;html=1;rounded=0;" edge="1" parent="1" source="IICgKp8x-0L88MFVPhWZ-2" target="IICgKp8x-0L88MFVPhWZ-3">
          <mxGeometry width="50" height="50" relative="1" as="geometry">
            <mxPoint x="370" y="260" as="sourcePoint" />
            <mxPoint x="420" y="210" as="targetPoint" />
          </mxGeometry>
        </mxCell>
        <mxCell id="IICgKp8x-0L88MFVPhWZ-9" value="「足し算」を&lt;div&gt;選択&lt;/div&gt;" style="edgeLabel;html=1;align=center;verticalAlign=middle;resizable=0;points=[];" vertex="1" connectable="0" parent="IICgKp8x-0L88MFVPhWZ-6">
          <mxGeometry x="-0.238" y="3" relative="1" as="geometry">
            <mxPoint x="-1" y="-28" as="offset" />
          </mxGeometry>
        </mxCell>
        <mxCell id="IICgKp8x-0L88MFVPhWZ-7" value="" style="endArrow=classic;html=1;rounded=0;" edge="1" parent="1" source="IICgKp8x-0L88MFVPhWZ-3" target="IICgKp8x-0L88MFVPhWZ-4">
          <mxGeometry width="50" height="50" relative="1" as="geometry">
            <mxPoint x="160" y="207" as="sourcePoint" />
            <mxPoint x="260" y="170" as="targetPoint" />
          </mxGeometry>
        </mxCell>
        <mxCell id="IICgKp8x-0L88MFVPhWZ-8" value="" style="endArrow=classic;html=1;rounded=0;" edge="1" parent="1" source="IICgKp8x-0L88MFVPhWZ-4" target="IICgKp8x-0L88MFVPhWZ-5">
          <mxGeometry width="50" height="50" relative="1" as="geometry">
            <mxPoint x="350" y="220" as="sourcePoint" />
            <mxPoint x="400" y="140" as="targetPoint" />
          </mxGeometry>
        </mxCell>
        <mxCell id="IICgKp8x-0L88MFVPhWZ-10" value="" style="endArrow=classic;html=1;rounded=0;" edge="1" parent="1" source="IICgKp8x-0L88MFVPhWZ-2" target="IICgKp8x-0L88MFVPhWZ-5">
          <mxGeometry width="50" height="50" relative="1" as="geometry">
            <mxPoint x="110" y="277" as="sourcePoint" />
            <mxPoint x="210" y="240" as="targetPoint" />
          </mxGeometry>
        </mxCell>
        <mxCell id="IICgKp8x-0L88MFVPhWZ-11" value="2つの整数を&lt;div&gt;入力&lt;/div&gt;" style="edgeLabel;html=1;align=center;verticalAlign=middle;resizable=0;points=[];" vertex="1" connectable="0" parent="IICgKp8x-0L88MFVPhWZ-10">
          <mxGeometry x="0.2829" relative="1" as="geometry">
            <mxPoint x="-24" y="22" as="offset" />
          </mxGeometry>
        </mxCell>
        <mxCell id="IICgKp8x-0L88MFVPhWZ-12" value="足し算処理" style="ellipse;shape=umlControl;whiteSpace=wrap;html=1;" vertex="1" parent="1">
          <mxGeometry x="370" y="230" width="70" height="80" as="geometry" />
        </mxCell>
        <mxCell id="IICgKp8x-0L88MFVPhWZ-13" value="RoboDog" style="ellipse;shape=umlEntity;whiteSpace=wrap;html=1;" vertex="1" parent="1">
          <mxGeometry x="550" y="250" width="80" height="80" as="geometry" />
        </mxCell>
        <mxCell id="IICgKp8x-0L88MFVPhWZ-14" value="結果出力&lt;div&gt;画面を&lt;/div&gt;&lt;div&gt;表示&lt;/div&gt;" style="ellipse;shape=umlControl;whiteSpace=wrap;html=1;" vertex="1" parent="1">
          <mxGeometry x="370" y="350" width="70" height="80" as="geometry" />
        </mxCell>
        <mxCell id="IICgKp8x-0L88MFVPhWZ-15" value="" style="endArrow=classic;html=1;rounded=0;" edge="1" parent="1" source="IICgKp8x-0L88MFVPhWZ-5" target="IICgKp8x-0L88MFVPhWZ-12">
          <mxGeometry width="50" height="50" relative="1" as="geometry">
            <mxPoint x="573" y="330" as="sourcePoint" />
            <mxPoint x="510" y="365" as="targetPoint" />
          </mxGeometry>
        </mxCell>
        <mxCell id="IICgKp8x-0L88MFVPhWZ-16" value="" style="endArrow=classic;html=1;rounded=0;" edge="1" parent="1" source="IICgKp8x-0L88MFVPhWZ-12" target="IICgKp8x-0L88MFVPhWZ-14">
          <mxGeometry width="50" height="50" relative="1" as="geometry">
            <mxPoint x="543" y="310" as="sourcePoint" />
            <mxPoint x="480" y="345" as="targetPoint" />
          </mxGeometry>
        </mxCell>
        <mxCell id="IICgKp8x-0L88MFVPhWZ-17" value="" style="endArrow=classic;startArrow=classic;html=1;rounded=0;" edge="1" parent="1" source="IICgKp8x-0L88MFVPhWZ-12" target="IICgKp8x-0L88MFVPhWZ-13">
          <mxGeometry width="50" height="50" relative="1" as="geometry">
            <mxPoint x="370" y="260" as="sourcePoint" />
            <mxPoint x="420" y="210" as="targetPoint" />
          </mxGeometry>
        </mxCell>
        <mxCell id="IICgKp8x-0L88MFVPhWZ-21" value="2つの整数を登録&lt;div&gt;足し算処理結果を登録&lt;/div&gt;" style="edgeLabel;html=1;align=center;verticalAlign=middle;resizable=0;points=[];" vertex="1" connectable="0" parent="IICgKp8x-0L88MFVPhWZ-17">
          <mxGeometry x="-0.0067" y="3" relative="1" as="geometry">
            <mxPoint y="-27" as="offset" />
          </mxGeometry>
        </mxCell>
        <mxCell id="IICgKp8x-0L88MFVPhWZ-18" value="" style="endArrow=classic;startArrow=classic;html=1;rounded=0;" edge="1" parent="1" source="IICgKp8x-0L88MFVPhWZ-14" target="IICgKp8x-0L88MFVPhWZ-13">
          <mxGeometry width="50" height="50" relative="1" as="geometry">
            <mxPoint x="500" y="350" as="sourcePoint" />
            <mxPoint x="610" y="362" as="targetPoint" />
          </mxGeometry>
        </mxCell>
        <mxCell id="IICgKp8x-0L88MFVPhWZ-22" value="足し算処理結果を&lt;div&gt;取得&lt;/div&gt;" style="edgeLabel;html=1;align=center;verticalAlign=middle;resizable=0;points=[];" vertex="1" connectable="0" parent="IICgKp8x-0L88MFVPhWZ-18">
          <mxGeometry x="0.0319" y="-1" relative="1" as="geometry">
            <mxPoint x="22" y="29" as="offset" />
          </mxGeometry>
        </mxCell>
        <mxCell id="IICgKp8x-0L88MFVPhWZ-19" value="結果出力&lt;span style=&quot;background-color: transparent; color: light-dark(rgb(0, 0, 0), rgb(255, 255, 255));&quot;&gt;画面&lt;/span&gt;" style="shape=umlBoundary;whiteSpace=wrap;html=1;" vertex="1" parent="1">
          <mxGeometry x="210" y="350" width="100" height="80" as="geometry" />
        </mxCell>
        <mxCell id="IICgKp8x-0L88MFVPhWZ-20" value="" style="endArrow=classic;html=1;rounded=0;" edge="1" parent="1" source="IICgKp8x-0L88MFVPhWZ-14" target="IICgKp8x-0L88MFVPhWZ-19">
          <mxGeometry width="50" height="50" relative="1" as="geometry">
            <mxPoint x="280" y="310" as="sourcePoint" />
            <mxPoint x="341" y="331" as="targetPoint" />
          </mxGeometry>
        </mxCell>
      </root>
    </mxGraphModel>
  </diagram>
</mxfile>
